<?xml version="1.0" encoding="UTF-8"?>
<svg version="1.1" xmlns="http://www.w3.org/2000/svg" width="229" height="228">
<path d="M0 0 C75.57 0 151.14 0 229 0 C229 75.24 229 150.48 229 228 C153.43 228 77.86 228 0 228 C0 152.76 0 77.52 0 0 Z " fill="#000100" transform="translate(0,0)"/>
<path d="M0 0 C75.57 0 151.14 0 229 0 C229 75.24 229 150.48 229 228 C153.43 228 77.86 228 0 228 C0 152.76 0 77.52 0 0 Z M13.8203125 10.875 C13.26085937 11.57625 12.70140625 12.2775 12.125 13 C11.55007812 13.70125 10.97515625 14.4025 10.3828125 15.125 C7.66832564 18.80566015 7.85424468 21.90993636 7.85955811 26.33061218 C7.85658698 27.09508992 7.85361586 27.85956765 7.8505547 28.64721137 C7.84184569 31.22274494 7.84035759 33.79823215 7.83886719 36.3737793 C7.83424048 38.21491089 7.82921602 40.05604152 7.82382202 41.89717102 C7.81067972 46.90975906 7.80424923 51.9223337 7.79981136 56.93493629 C7.79688291 60.06576007 7.79277849 63.19658018 7.78830719 66.32740211 C7.77462596 76.12032927 7.764963 85.91324803 7.7611053 95.70618409 C7.7566262 107.01511811 7.73908777 118.32393117 7.7101047 129.63282841 C7.68848915 138.37006335 7.67840104 147.10726425 7.67706418 155.84452564 C7.67601584 161.06445988 7.67010216 166.28428051 7.65224457 171.50418663 C7.63576666 176.41663871 7.63360707 181.32889175 7.64238358 186.24136162 C7.64315416 188.04288007 7.63880838 189.84440921 7.62892532 191.64590073 C7.61620713 194.10899354 7.62208175 196.57138136 7.63250732 199.0344696 C7.62445092 199.74421375 7.61639452 200.4539579 7.60809398 201.18520945 C7.66442014 206.89131514 9.02974193 211.3624812 12.46484375 215.9609375 C12.95082031 216.42757812 13.43679687 216.89421875 13.9375 217.375 C14.42089844 217.85710937 14.90429688 218.33921875 15.40234375 218.8359375 C19.24453545 221.63538279 23.9267748 221.14836122 28.48846436 221.14717102 C29.24577827 221.15084771 30.00309218 221.1545244 30.783355 221.1583125 C33.32269927 221.16933144 35.8620026 221.17319012 38.40136719 221.17700195 C40.22146738 221.18326791 42.0415663 221.18991483 43.86166382 221.19691467 C49.84005851 221.2179401 55.81845341 221.228315 61.796875 221.23828125 C63.85586816 221.24232924 65.91486118 221.24644618 67.97385406 221.25063133 C77.64663851 221.26967892 87.31941533 221.2839114 96.99221492 221.2922433 C108.15456433 221.30201732 119.31671552 221.32834303 130.47899508 221.36874419 C139.10927967 221.39890828 147.73950744 221.41371242 156.36984372 221.41702431 C161.52331161 221.41937427 166.67656764 221.42832797 171.82997894 221.45348549 C176.67930375 221.47677655 181.52827733 221.48099524 186.37764359 221.47072411 C188.1545618 221.4702289 189.93149738 221.47654474 191.70836258 221.49028015 C194.1405271 221.50802487 196.57143456 221.50088113 199.00360107 221.48774719 C199.70128625 221.49871644 200.39897142 221.50968568 201.11779857 221.52098733 C206.48606482 221.45133752 210.55878829 219.87756118 215 217 C219.99032589 211.74702537 221.29863717 207.6064144 221.26069641 200.46684265 C221.26452196 199.70473962 221.26834751 198.94263659 221.27228898 198.15743953 C221.28261372 195.6018786 221.27862782 193.04654257 221.2746582 190.4909668 C221.27900503 188.65939119 221.28418809 186.82781741 221.29014587 184.99624634 C221.30355189 180.01887876 221.30411264 175.04158705 221.30158257 170.06420493 C221.3005137 165.90918897 221.30539421 161.75418842 221.310188 157.59917575 C221.32128925 147.79535353 221.32171745 137.99156961 221.31567383 128.18774414 C221.30963588 118.07554684 221.32193912 107.96348875 221.3432439 97.8513152 C221.3608628 89.16923469 221.3668607 80.48719847 221.36360615 71.80510074 C221.36179323 66.61985766 221.36443022 61.43471382 221.37832069 56.24948692 C221.39089866 51.37146798 221.38895516 46.4936658 221.37590981 41.61565018 C221.37354421 39.82703516 221.37627809 38.03840489 221.38453293 36.24980736 C221.39500394 33.80432345 221.38689715 31.35956634 221.3742218 28.91410828 C221.38159609 28.20961931 221.38897037 27.50513035 221.39656812 26.77929324 C221.33705471 21.30518632 220.167265 16.52558614 216.53515625 12.29296875 C210.95019596 8.10054498 207.52772235 6.70172933 200.54277039 6.74603271 C199.4118665 6.74135274 199.4118665 6.74135274 198.25811607 6.73657823 C195.73018485 6.72859699 193.20249359 6.73492241 190.67456055 6.74121094 C188.86268981 6.73850106 187.05082018 6.73494015 185.23895264 6.73059082 C180.3152954 6.7214622 175.39172185 6.72501355 170.46806312 6.73134899 C165.31568662 6.73640884 160.16331733 6.73171736 155.01094055 6.72857666 C146.35469272 6.72493599 137.69847899 6.72973773 129.04223633 6.73925781 C119.03912863 6.75013224 109.03610253 6.74662454 99.03299683 6.735605 C90.44433574 6.72652269 81.85569918 6.72525178 73.26703483 6.73048234 C68.13770798 6.73359817 63.00841945 6.7340222 57.87909508 6.72740936 C53.05364042 6.7216232 48.22829064 6.72565611 43.40284729 6.73719788 C41.63358547 6.7398381 39.8643148 6.73909027 38.09505653 6.73467255 C35.67597949 6.72919019 33.25723644 6.73608379 30.83818054 6.74603271 C30.14147348 6.74157127 29.44476641 6.73710983 28.72694701 6.73251319 C23.30238818 6.77564753 18.04004671 7.24512111 13.8203125 10.875 Z " fill="#10B37D" transform="translate(0,0)"/>
<path d="M0 0 C3.24121265 2.9711116 3.24121265 2.9711116 3.5625 6.3125 C3.20354121 10.62000548 2.25888412 12.05361588 -0.75 15.0625 C-3.9634578 16.6692289 -7.47108922 16.40401131 -11.0234375 16.5859375 C-14.07234772 17.11884158 -15.53321002 17.92975893 -17.75 20.0625 C-17.75 20.7225 -17.75 21.3825 -17.75 22.0625 C-16.68072266 22.02769531 -16.68072266 22.02769531 -15.58984375 21.9921875 C-9.86639606 21.88434326 -5.15161186 22.14192689 0.25 24.0625 C-0.41 22.4125 -1.07 20.7625 -1.75 19.0625 C-1.09 18.4025 -0.43 17.7425 0.25 17.0625 C1.57 17.0625 2.89 17.0625 4.25 17.0625 C4.8647541 25.05430328 4.8647541 25.05430328 2.6875 28.625 C-0.67942345 30.61062152 -2.88928108 30.46188472 -6.75 30.0625 C-8.76222047 29.4336811 -10.76276732 28.76631157 -12.75 28.0625 C-15.07694964 27.68718554 -17.40976685 27.34332798 -19.75 27.0625 C-19.75 28.0525 -19.75 29.0425 -19.75 30.0625 C-21.41611905 30.105221 -23.08382885 30.10313832 -24.75 30.0625 C-25.75 29.0625 -25.75 29.0625 -26 25.3125 C-25.94460999 21.44904647 -25.2627306 19.11367288 -22.75 16.0625 C-19.83719136 14.30477065 -17.37025429 13.73487538 -14 13.4375 C-13.20078125 13.36273438 -12.4015625 13.28796875 -11.578125 13.2109375 C-10.97484375 13.16195312 -10.3715625 13.11296875 -9.75 13.0625 C-7.75214565 8.9419254 -7.57164485 5.61055635 -7.75 1.0625 C-10.39 1.0625 -13.03 1.0625 -15.75 1.0625 C-13.275 3.0425 -13.275 3.0425 -10.75 5.0625 C-11.08 6.7125 -11.41 8.3625 -11.75 10.0625 C-13.54133978 10.11641993 -15.33313899 10.15525571 -17.125 10.1875 C-18.12273437 10.21070313 -19.12046875 10.23390625 -20.1484375 10.2578125 C-22.75 10.0625 -22.75 10.0625 -24.75 8.0625 C-25.125 5.6875 -25.125 5.6875 -24.75 3.0625 C-19.61501508 -3.53962347 -6.88815217 -4.63690244 0 0 Z " fill="#0EA875" transform="translate(117.75,131.9375)"/>
<path d="M0 0 C1.17369141 -0.00386719 1.17369141 -0.00386719 2.37109375 -0.0078125 C4.5625 0.125 4.5625 0.125 7.5625 1.125 C9.91369399 4.65179099 9.77693452 6.15379485 9.6875 10.3125 C9.66945312 11.39917969 9.65140625 12.48585938 9.6328125 13.60546875 C9.60960937 14.43691406 9.58640625 15.26835938 9.5625 16.125 C8.9025 16.125 8.2425 16.125 7.5625 16.125 C7.5625 16.785 7.5625 17.445 7.5625 18.125 C3.62643081 20.74904613 0.13659061 20.48802306 -4.4375 20.125 C-6.4375 18.75 -6.4375 18.75 -7.4375 17.125 C-7.4375 16.465 -7.4375 15.805 -7.4375 15.125 C-8.0975 15.125 -8.7575 15.125 -9.4375 15.125 C-10.00290084 5.51318565 -10.00290084 5.51318565 -6.4375 1.125 C-4.08479407 -0.05135297 -2.616748 -0.00859359 0 0 Z " fill="#0C9165" transform="translate(170.4375,69.875)"/>
<path d="M0 0 C2.625 1.375 2.625 1.375 4 4 C4.78820448 8.97239637 4.785409 12.7171653 2.125 17.0625 C-1.08274822 19.98721161 -3.56884793 20.53269438 -7.95703125 20.46875 C-10.52891689 19.8786424 -11.37102117 19.0537269 -13 17 C-15.50596557 12.78929595 -15.77839024 9.82601948 -15 5 C-11.30350974 -0.91438441 -6.40926751 -1.11324545 0 0 Z " fill="#0C9668" transform="translate(135,70)"/>
<path d="M0 0 C2.625 1.4375 2.625 1.4375 4 4 C4.7067363 8.98435077 4.39254715 13.49638183 2 18 C0.35962605 19.64037395 -1.49476841 19.24911331 -3.75 19.3125 C-7.48290476 19.28579825 -8.7881884 19.12968057 -12.0625 17.125 C-15.03261056 13.86745939 -15.42512391 11.48066871 -15.328125 7.04296875 C-15 5 -15 5 -13.125 2 C-8.73618974 -0.80883857 -5.07516187 -0.89007898 0 0 Z " fill="#0C9769" transform="translate(75,70)"/>
<path d="M0 0 C11 0 11 0 14.1875 1 C16 3 16 3 16.5625 6.9375 C16.37433147 10.03942966 16.09180605 10.88065213 14.125 13.4375 C10.29984042 16.25011734 7.71882042 16.08738556 3 16 C3 19.3 3 22.6 3 26 C2.01 26 1.02 26 0 26 C0 17.42 0 8.84 0 0 Z " fill="#0D9E6E" transform="translate(42,63)"/>
<path d="M0 0 C0.66 0.33 1.32 0.66 2 1 C1.27683594 1.77923828 1.27683594 1.77923828 0.5390625 2.57421875 C-0.09257812 3.27160156 -0.72421875 3.96898437 -1.375 4.6875 C-2.00148438 5.37199219 -2.62796875 6.05648438 -3.2734375 6.76171875 C-6.97196692 11.55641866 -7.29200604 16.09478543 -7.26742554 21.98835754 C-7.27195665 22.7873614 -7.27648776 23.58636526 -7.28115618 24.40958136 C-7.29380563 27.08406699 -7.29217946 29.75834912 -7.29052734 32.43286133 C-7.29651227 34.35163128 -7.30331774 36.27039883 -7.31088257 38.18916321 C-7.32855386 43.39999477 -7.33323844 48.61076065 -7.33451414 53.82161927 C-7.33593571 57.07793692 -7.34020544 60.33423787 -7.34550858 63.59055138 C-7.36401291 74.95303788 -7.37217872 86.31547745 -7.37060547 97.67797852 C-7.36940411 108.26565478 -7.39050437 118.85312717 -7.4220928 129.44075185 C-7.44825462 138.53390582 -7.45897279 147.6269932 -7.45769465 156.7201845 C-7.45718497 162.14972422 -7.46287156 167.57908278 -7.48405075 173.00858498 C-7.50343132 178.11647797 -7.50355872 183.22401697 -7.48901749 188.33192253 C-7.48692804 190.20397586 -7.49163836 192.07605133 -7.5037384 193.94806671 C-7.51921809 196.50935562 -7.50986534 199.06942806 -7.49447632 201.63069153 C-7.50476344 202.36660406 -7.51505057 203.1025166 -7.52564943 203.86072952 C-7.4461571 209.87253202 -5.71921444 215.25487955 -1.41111124 219.60402614 C0.00949025 220.79787908 1.49927836 221.90856608 3 223 C2.505 223.99 2.505 223.99 2 225 C-3.21046133 221.69336108 -6.52603344 218.81769858 -9 213 C-9.53675389 210.16835028 -9.5458448 207.4194813 -9.5146637 204.54335022 C-9.52160922 203.7181362 -9.52855475 202.89292217 -9.53571075 202.04270166 C-9.55393435 199.29129104 -9.54372956 196.54074719 -9.53344727 193.78930664 C-9.54050809 191.81112525 -9.54925379 189.83294927 -9.55955505 187.8547821 C-9.58204038 182.49110549 -9.57911124 177.12772408 -9.57023358 171.7640183 C-9.56512037 167.28335395 -9.57241898 162.80274492 -9.57970566 158.32208627 C-9.59670197 147.7505636 -9.59314147 137.17918528 -9.57641602 126.60766602 C-9.55949338 115.70746464 -9.57533198 104.80766369 -9.6076389 93.90750605 C-9.63434247 84.54253144 -9.64160874 75.17768141 -9.63312382 65.81267256 C-9.62819707 60.22217798 -9.63039683 54.63192433 -9.65091133 49.04146004 C-9.6692804 43.784071 -9.66329439 38.52725756 -9.63871193 33.26989937 C-9.63370804 31.34302558 -9.63718281 29.41610784 -9.64986038 27.48926926 C-9.665828 24.85339894 -9.65080622 22.21941558 -9.62818909 19.58363342 C-9.64002482 18.82573944 -9.65186054 18.06784545 -9.66405493 17.28698498 C-9.5629477 11.46525965 -7.59104222 7.5487921 -4 3 C-1.6875 1 -1.6875 1 0 0 Z " fill="#1ABB85" transform="translate(9,2)"/>
<path d="M0 0 C1.32 0 2.64 0 4 0 C4 1.32 4 2.64 4 4 C5.32 4 6.64 4 8 4 C8 5.32 8 6.64 8 8 C6.68 8 5.36 8 4 8 C4 12.29 4 16.58 4 21 C5.32 21 6.64 21 8 21 C8 22.32 8 23.64 8 25 C5.125 25.1875 5.125 25.1875 2 25 C-0.49118953 21.2632157 -0.2065226 19.25548181 -0.125 14.8125 C-0.10695313 13.54019531 -0.08890625 12.26789063 -0.0703125 10.95703125 C-0.04710938 9.98121094 -0.02390625 9.00539063 0 8 C-3.3 8.33 -6.6 8.66 -10 9 C-10.33 13.95 -10.66 18.9 -11 24 C-12.32 24 -13.64 24 -15 24 C-15 17.73 -15 11.46 -15 5 C-12.525 5.495 -12.525 5.495 -10 6 C-9.67 5.67 -9.34 5.34 -9 5 C-7.48071962 4.92820036 -5.95832518 4.91607993 -4.4375 4.9375 C-3.61121094 4.94652344 -2.78492187 4.95554687 -1.93359375 4.96484375 C-1.29550781 4.97644531 -0.65742187 4.98804687 0 5 C0 3.35 0 1.7 0 0 Z " fill="#097753" transform="translate(98,65)"/>
<path d="M0 0 C5.36842105 -0.35789474 5.36842105 -0.35789474 7.875 1.0625 C9.67440223 4.1614705 9.42327427 6.49287033 9 10 C7.20437595 12.75329021 5.94745078 14.52627461 3 16 C1.125 16.1328125 1.125 16.1328125 -1 16.125 C-2.051875 16.12886719 -2.051875 16.12886719 -3.125 16.1328125 C-5 16 -5 16 -7 15 C-7 14.34 -7 13.68 -7 13 C-6.01 13 -5.02 13 -4 13 C-3.67 12.01 -3.34 11.02 -3 10 C-2.34 9.67 -1.68 9.34 -1 9 C-0.53348793 6.87423218 -0.53348793 6.87423218 -0.375 4.4375 C-0.30023438 3.61121094 -0.22546875 2.78492188 -0.1484375 1.93359375 C-0.09945312 1.29550781 -0.05046875 0.65742188 0 0 Z " fill="#0EAE79" transform="translate(112,132)"/>
<path d="M0 0 C3.5625 0.3125 3.5625 0.3125 5.5 1.375 C7.1765629 4.43226176 6.92778977 6.9031288 6.5625 10.3125 C5.5 12.25 5.5 12.25 3.5625 13.3125 C0 13.625 0 13.625 -3.4375 13.3125 C-5.4375 11.3125 -5.4375 11.3125 -5.703125 9.21875 C-5.69539063 8.02765625 -5.69539063 8.02765625 -5.6875 6.8125 C-5.69265625 6.0184375 -5.6978125 5.224375 -5.703125 4.40625 C-5.21500819 0.55874106 -3.66379154 0.33307196 0 0 Z " fill="#000A07" transform="translate(69.4375,72.6875)"/>
<path d="M0 0 C6.34507042 -0.35915493 6.34507042 -0.35915493 8.9375 1.0625 C10.6140629 4.11976176 10.36528977 6.5906288 10 10 C8.9375 11.9375 8.9375 11.9375 7 13 C3.4375 13.3125 3.4375 13.3125 0 13 C-2 11 -2 11 -2.25 7.625 C-2.02515633 4.36476676 -1.7239511 2.69367359 0 0 Z " fill="#000805" transform="translate(126,73)"/>
<path d="M0 0 C3.5 0.25 3.5 0.25 5.5 2.25 C5.765625 4.34375 5.765625 4.34375 5.75 6.75 C5.75515625 7.5440625 5.7603125 8.338125 5.765625 9.15625 C5.5 11.25 5.5 11.25 3.5 13.25 C0 13.5 0 13.5 -3.5 13.25 C-5.5 11.25 -5.5 11.25 -5.765625 9.15625 C-5.75789062 7.96515625 -5.75789062 7.96515625 -5.75 6.75 C-5.75515625 5.9559375 -5.7603125 5.161875 -5.765625 4.34375 C-5.27150997 0.44896095 -3.70978315 0.26498451 0 0 Z " fill="#000604" transform="translate(170.5,72.75)"/>
<path d="M0 0 C0.94875 0.04125 1.8975 0.0825 2.875 0.125 C2.875 0.785 2.875 1.445 2.875 2.125 C1.555 2.455 0.235 2.785 -1.125 3.125 C-1.455 5.105 -1.785 7.085 -2.125 9.125 C-0.805 9.125 0.515 9.125 1.875 9.125 C1.875 9.785 1.875 10.445 1.875 11.125 C0.555 11.125 -0.765 11.125 -2.125 11.125 C-2.125 16.735 -2.125 22.345 -2.125 28.125 C-3.445 28.125 -4.765 28.125 -6.125 28.125 C-6.125 22.845 -6.125 17.565 -6.125 12.125 C-6.785 12.125 -7.445 12.125 -8.125 12.125 C-8.125 11.135 -8.125 10.145 -8.125 9.125 C-7.135 9.125 -6.145 9.125 -5.125 9.125 C-5.16625 8.01125 -5.2075 6.8975 -5.25 5.75 C-5.09146151 1.15238393 -4.65510388 0.18620416 0 0 Z " fill="#0C996B" transform="translate(116.125,60.875)"/>
<path d="M0 0 C0.33 0.66 0.66 1.32 1 2 C0.67 2.66 0.34 3.32 0 4 C0.66 4.33 1.32 4.66 2 5 C0.02 5.99 0.02 5.99 -2 7 C-1.67 8.65 -1.34 10.3 -1 12 C-1.9075 11.835 -2.815 11.67 -3.75 11.5 C-9.13782475 10.71126689 -14.56912556 10.91974077 -20 11 C-19.63565772 8.35851848 -19.19122292 7.19122292 -17.28125 5.28125 C-13.81615405 3.33510022 -10.55791857 3.53487644 -6.65625 3.40625 C-3.64229514 2.9452922 -2.25475703 1.99950151 0 0 Z " fill="#022218" transform="translate(119,144)"/>
<path d="M0 0 C6.15234375 -0.09765625 6.15234375 -0.09765625 8 0 C9 1 9 1 9.25 4.25 C8.97759019 8.33614718 8.80409321 10.02596174 6 13 C2.04691721 14.41339273 -1.81248107 15 -6 15 C-4.35 14.01 -2.7 13.02 -1 12 C-2.32 11.34 -3.64 10.68 -5 10 C-0.545 9.505 -0.545 9.505 4 9 C3.81171228 6.55519921 3.81171228 6.55519921 3 4 C1.03241727 2.63979849 1.03241727 2.63979849 -1 2 C-0.67 1.34 -0.34 0.68 0 0 Z " fill="#033021" transform="translate(102,132)"/>
<path d="M0 0 C6.625 -0.25 6.625 -0.25 10 2 C10.4305182 4.79836832 10.37794659 6.35526759 8.9375 8.8125 C6.00731249 10.60842137 3.3527047 10.18977574 0 10 C0 6.7 0 3.4 0 0 Z " fill="#010E0A" transform="translate(45,66)"/>
<path d="M0 0 C0.99 0 1.98 0 3 0 C3 9.24 3 18.48 3 28 C2.01 28 1.02 28 0 28 C0 18.76 0 9.52 0 0 Z " fill="#0DA674" transform="translate(144,61)"/>
<path d="M0 0 C1.32 0 2.64 0 4 0 C4 6.6 4 13.2 4 20 C2.68 20 1.36 20 0 20 C0 13.4 0 6.8 0 0 Z " fill="#0B8B61" transform="translate(153,70)"/>
<path d="M0 0 C0.99 0.495 0.99 0.495 2 1 C2.28875 1.969375 2.5775 2.93875 2.875 3.9375 C3.66059192 7.04697518 3.66059192 7.04697518 5.8125 8.125 C6.8953125 8.558125 6.8953125 8.558125 8 9 C10.475 10.98 10.475 10.98 13 13 C8.71 13 4.42 13 0 13 C0 8.71 0 4.42 0 0 Z " fill="#000000" transform="translate(0,215)"/>
<path d="M0 0 C0.99 0.495 0.99 0.495 2 1 C2.4140625 3.72265625 2.4140625 3.72265625 2.625 7.0625 C2.69976562 8.16722656 2.77453125 9.27195312 2.8515625 10.41015625 C2.90054688 11.26480469 2.94953125 12.11945313 3 13 C4.65 13.33 6.3 13.66 8 14 C8 14.33 8 14.66 8 15 C6.35 15 4.7 15 3 15 C3 18.63 3 22.26 3 26 C2.01 26 1.02 26 0 26 C0 17.42 0 8.84 0 0 Z " fill="#0D9F6E" transform="translate(42,63)"/>
<path d="M0 0 C4.29 0 8.58 0 13 0 C10.82987456 1.62759408 8.65215544 3.2460364 6.4375 4.8125 C3.67647838 7.29033992 2.46004309 9.61884757 1 13 C0.67 13 0.34 13 0 13 C0 8.71 0 4.42 0 0 Z " fill="#000000" transform="translate(0,0)"/>
<path d="M0 0 C4.29 0 8.58 0 13 0 C13 4.29 13 8.58 13 13 C12.01 11.68 11.02 10.36 10 9 C6.96864865 5.01137981 4.8976853 2.39933866 0 1 C0 0.67 0 0.34 0 0 Z " fill="#000000" transform="translate(216,0)"/>
<path d="M0 0 C0.33 0 0.66 0 1 0 C1 4.29 1 8.58 1 13 C-2.96 13 -6.92 13 -11 13 C-10.2575 12.443125 -9.515 11.88625 -8.75 11.3125 C-4.88067216 8.05874704 -2.05723174 4.62877141 0 0 Z " fill="#000000" transform="translate(228,215)"/>
<path d="M0 0 C1.14662109 0.02320312 1.14662109 0.02320312 2.31640625 0.046875 C4.4375 0.25 4.4375 0.25 7.4375 1.25 C7.1075 1.91 6.7775 2.57 6.4375 3.25 C5.7775 2.92 5.1175 2.59 4.4375 2.25 C4.1075 2.91 3.7775 3.57 3.4375 4.25 C2.32375 4.20875 1.21 4.1675 0.0625 4.125 C-3.60616025 3.83878141 -3.60616025 3.83878141 -5.5625 6.25 C-6.28177295 8.56765729 -6.9534893 10.90095874 -7.5625 13.25 C-7.8925 13.25 -8.2225 13.25 -8.5625 13.25 C-8.67074843 11.6473218 -8.74820645 10.04254252 -8.8125 8.4375 C-8.85890625 7.54417969 -8.9053125 6.65085937 -8.953125 5.73046875 C-8.5625 3.25 -8.5625 3.25 -6.83203125 1.44140625 C-4.30158405 0.11303035 -2.83456125 -0.09592424 0 0 Z " fill="#0B8D62" transform="translate(170.5625,69.75)"/>
<path d="M0 0 C0.99 0 1.98 0 3 0 C3 1.65 3 3.3 3 5 C4.32 5 5.64 5 7 5 C7 5.66 7 6.32 7 7 C5.68 7 4.36 7 3 7 C3 11.29 3 15.58 3 20 C2.34 20.33 1.68 20.66 1 21 C1 16.38 1 11.76 1 7 C-0.32 7 -1.64 7 -3 7 C-3 6.34 -3 5.68 -3 5 C-2.01 5 -1.02 5 0 5 C0 3.35 0 1.7 0 0 Z " fill="#0EA875" transform="translate(98,65)"/>
<path d="M0 0 C0.99 0 1.98 0 3 0 C3.13277344 0.61488281 3.26554687 1.22976562 3.40234375 1.86328125 C3.57894531 2.67152344 3.75554688 3.47976562 3.9375 4.3125 C4.19853516 5.51326172 4.19853516 5.51326172 4.46484375 6.73828125 C4.99886159 9.145401 4.99886159 9.145401 6 12 C6.94875 11.95875 7.8975 11.9175 8.875 11.875 C12 12 12 12 14 14 C6.76813075 14.49029622 6.76813075 14.49029622 3.0625 12.125 C0.98776946 9.98739884 0.05104066 9.01672997 -0.09765625 6.0546875 C-0.06510417 4.03645833 -0.03255208 2.01822917 0 0 Z " fill="#0DA06F" transform="translate(60,75)"/>
<path d="M0 0 C0.33 0 0.66 0 1 0 C1.66531087 6.38698432 -0.05263607 9.99783084 -4 15 C-7.74804176 18.84667444 -10.6882336 19.58339087 -16 20 C-13.72062639 18.24663569 -11.46652272 16.67769081 -9 15.1875 C-3.47301165 11.15740433 -1.53838188 6.40992451 0 0 Z " fill="#A1D0C2" transform="translate(228,208)"/>
<path d="M0 0 C0.91007813 0.00902344 1.82015625 0.01804687 2.7578125 0.02734375 C3.45648438 0.03894531 4.15515625 0.05054687 4.875 0.0625 C5.205 0.7225 5.535 1.3825 5.875 2.0625 C2.40174819 3.2202506 -0.48567448 3.13116652 -4.125 3.0625 C-4.785 6.0325 -5.445 9.0025 -6.125 12.0625 C-6.455 12.0625 -6.785 12.0625 -7.125 12.0625 C-7.25 6.3125 -7.25 6.3125 -6.125 4.0625 C-7.115 4.3925 -8.105 4.7225 -9.125 5.0625 C-6.91386358 0.16641221 -5.24075958 -0.06718923 0 0 Z " fill="#0C9265" transform="translate(130.125,69.9375)"/>
<path d="M0 0 C5.54105839 0.22616565 8.44651857 1.51342764 12.48828125 5.328125 C15.82257569 9.0156651 16.94829563 11.93144299 17.1875 16.875 C17.0946875 18.421875 17.0946875 18.421875 17 20 C15.99901302 18.0287581 15.02670802 16.06106424 14.140625 14.03515625 C11.40388375 7.97351445 8.31028422 4.51121671 2.125 1.6875 C1.42375 1.460625 0.7225 1.23375 0 1 C0 0.67 0 0.34 0 0 Z " fill="#A5CDBF" transform="translate(212,0)"/>
<path d="M0 0 C1.72089844 -0.02126953 1.72089844 -0.02126953 3.4765625 -0.04296875 C6.375 0.1875 6.375 0.1875 8.375 2.1875 C7.055 2.1875 5.735 2.1875 4.375 2.1875 C4.375 5.1575 4.375 8.1275 4.375 11.1875 C3.385 11.6825 3.385 11.6825 2.375 12.1875 C2.375 9.2175 2.375 6.2475 2.375 3.1875 C-2.245 3.1875 -6.865 3.1875 -11.625 3.1875 C-10.625 1.1875 -10.625 1.1875 -8.9765625 0.57421875 C-5.96293126 0.07862159 -3.05379961 0.01723363 0 0 Z " fill="#0B8D62" transform="translate(107.625,129.8125)"/>
<path d="M0 0 C-0.7425 0.391875 -1.485 0.78375 -2.25 1.1875 C-5.30447449 3.20067637 -7.05454193 4.90167789 -9 8 C-9.33513594 11.20980136 -9.33513594 11.20980136 -9 14 C-7.68 13.67 -6.36 13.34 -5 13 C-5 13.66 -5 14.32 -5 15 C-6.66611905 15.042721 -8.33382885 15.04063832 -10 15 C-11 14 -11 14 -11.25 10.25 C-11.19460999 6.38654647 -10.5127306 4.05117288 -8 1 C-5.0438846 -1.09788835 -3.38915747 -1.21041338 0 0 Z " fill="#0B875E" transform="translate(103,147)"/>
<path d="M0 0 C-0.04125 1.216875 -0.0825 2.43375 -0.125 3.6875 C-0.13754508 7.21894127 0.40001783 9.80003566 2 13 C0.125 12.6875 0.125 12.6875 -2 12 C-4.67927341 7.98108988 -4.15601248 5.75838077 -4 1 C-2 0 -2 0 0 0 Z " fill="#0D9E6E" transform="translate(124,74)"/>
<path d="M0 0 C2.64 0 5.28 0 8 0 C8 2.31 8 4.62 8 7 C7.34 7 6.68 7 6 7 C6 6.34 6 5.68 6 5 C4.02 4.34 2.04 3.68 0 3 C0 2.01 0 1.02 0 0 Z " fill="#000201" transform="translate(102,132)"/>
<path d="M0 0 C0.66 0.33 1.32 0.66 2 1 C1.52949219 1.47308594 1.05898437 1.94617188 0.57421875 2.43359375 C-3.99905043 7.29091692 -6.42471061 11.51880938 -8 18 C-8.33 18 -8.66 18 -9 18 C-9.66183521 11.64638202 -7.95286122 7.97187077 -4 3 C-1.6875 1 -1.6875 1 0 0 Z " fill="#A4C4BA" transform="translate(9,2)"/>
<path d="M0 0 C1.00098698 1.9712419 1.97329198 3.93893576 2.859375 5.96484375 C5.13186965 10.99822007 7.53433471 13.75224343 12 17 C11.67 17.66 11.34 18.32 11 19 C5.56392314 15.55018199 2.5684053 12.95870029 0 7 C-0.25 3.0625 -0.25 3.0625 0 0 Z " fill="#C0DFD3" transform="translate(0,208)"/>
<path d="M0 0 C2.475 0.99 2.475 0.99 5 2 C5 5.96 5 9.92 5 14 C4.34 14 3.68 14 3 14 C3.33 10.37 3.66 6.74 4 3 C3.34 3 2.68 3 2 3 C2 5.97 2 8.94 2 12 C1.67 12 1.34 12 1 12 C0.67 8.04 0.34 4.08 0 0 Z " fill="#097451" transform="translate(175,72)"/>
<path d="M0 0 C0.33 0 0.66 0 1 0 C1.33 3.96 1.66 7.92 2 12 C3.65 12.33 5.3 12.66 7 13 C7 13.33 7 13.66 7 14 C5.35 14.33 3.7 14.66 2 15 C1.67 17.97 1.34 20.94 1 24 C0.67 24 0.34 24 0 24 C0 16.08 0 8.16 0 0 Z " fill="#0FB77F" transform="translate(43,64)"/>
<path d="M0 0 C2.00720923 0.28674418 4.0085944 0.61866701 6 1 C6 2.32 6 3.64 6 5 C4.02 5 2.04 5 0 5 C-0.5625 3.0625 -0.5625 3.0625 -1 1 C-0.67 0.67 -0.34 0.34 0 0 Z " fill="#0A825A" transform="translate(100,85)"/>
<path d="M0 0 C0.33 0.66 0.66 1.32 1 2 C1.66 2 2.32 2 3 2 C2.34 3.32 1.68 4.64 1 6 C-2.3 5.34 -5.6 4.68 -9 4 C-9 3.67 -9 3.34 -9 3 C-7.88625 2.87625 -6.7725 2.7525 -5.625 2.625 C-1.96896323 2.3534187 -1.96896323 2.3534187 0 0 Z " fill="#097652" transform="translate(75,83)"/>
<path d="M0 0 C0.99 0 1.98 0 3 0 C2.71890887 1.64767247 2.42481474 3.29313145 2.125 4.9375 C1.96257812 5.85402344 1.80015625 6.77054687 1.6328125 7.71484375 C1.42398438 8.46894531 1.21515625 9.22304687 1 10 C0.01 10.495 0.01 10.495 -1 11 C-1.02688151 9.35425434 -1.04634123 7.70838587 -1.0625 6.0625 C-1.07410156 5.14597656 -1.08570313 4.22945313 -1.09765625 3.28515625 C-1 1 -1 1 0 0 Z " fill="#0DA371" transform="translate(163,72)"/>
<path d="M0 0 C1.4540625 0.0309375 1.4540625 0.0309375 2.9375 0.0625 C2.9375 0.7225 2.9375 1.3825 2.9375 2.0625 C1.6175 2.3925 0.2975 2.7225 -1.0625 3.0625 C-1.3925 5.0425 -1.7225 7.0225 -2.0625 9.0625 C-3.625 7.875 -3.625 7.875 -5.0625 6.0625 C-4.49385346 0.0917113 -4.49385346 0.0917113 0 0 Z " fill="#0D9E6E" transform="translate(116.0625,60.9375)"/>
<path d="M0 0 C0.23460938 0.63421875 0.46921875 1.2684375 0.7109375 1.921875 C1.82290908 4.18250739 1.82290908 4.18250739 4.1640625 4.828125 C4.97617188 4.96734375 5.78828125 5.1065625 6.625 5.25 C7.44226563 5.39953125 8.25953125 5.5490625 9.1015625 5.703125 C9.72804688 5.80109375 10.35453125 5.8990625 11 6 C7.08263419 7.1700097 4.02040985 6.69584017 0 6 C-0.38218767 4.34385343 -0.71395102 2.67542976 -1 1 C-0.67 0.67 -0.34 0.34 0 0 Z " fill="#0C9064" transform="translate(98,153)"/>
<path d="M0 0 C0.33 0.99 0.66 1.98 1 3 C1.66 3 2.32 3 3 3 C2.34 7.62 1.68 12.24 1 17 C0.67 17 0.34 17 0 17 C0 11.39 0 5.78 0 0 Z " fill="#0EB17B" transform="translate(85,71)"/>
<path d="M0 0 C2.475 0.495 2.475 0.495 5 1 C5 3.64 5 6.28 5 9 C4.34 8.01 3.68 7.02 3 6 C2.195625 4.9790625 2.195625 4.9790625 1.375 3.9375 C0 2 0 2 0 0 Z " fill="#0DA372" transform="translate(133,72)"/>
<path d="M0 0 C1.485 0.99 1.485 0.99 3 2 C3.1875 5.125 3.1875 5.125 3 8 C2.01 8.33 1.02 8.66 0 9 C0 6.03 0 3.06 0 0 Z " fill="#0EAE79" transform="translate(55,66)"/>
<path d="M0 0 C0 0.33 0 0.66 0 1 C-1.65 1.33 -3.3 1.66 -5 2 C-3.35 2.33 -1.7 2.66 0 3 C0 3.33 0 3.66 0 4 C-2.64 4 -5.28 4 -8 4 C-8.33 3.01 -8.66 2.02 -9 1 C-6.04335481 -0.4783226 -3.25770263 -0.06032783 0 0 Z " fill="#086848" transform="translate(133,86)"/>
<path d="M0 0 C2.33333333 0 4.66666667 0 7 0 C7 0.99 7 1.98 7 3 C4.69 3.33 2.38 3.66 0 4 C0 2.68 0 1.36 0 0 Z " fill="#0C9668" transform="translate(86,70)"/>
<path d="M0 0 C0 0.99 0 1.98 0 3 C-0.680625 2.855625 -1.36125 2.71125 -2.0625 2.5625 C-5.36273082 1.93054091 -8.67144426 1.45686059 -12 1 C-12 0.67 -12 0.34 -12 0 C-3.42857143 -1.28571429 -3.42857143 -1.28571429 0 0 Z " fill="#0B895F" transform="translate(57,65)"/>
<path d="M0 0 C0.66 0 1.32 0 2 0 C3.26264601 4.29299643 2.62950412 6.87831311 1 11 C0.67 11 0.34 11 0 11 C-0.125 5.25 -0.125 5.25 1 3 C0.01 3.33 -0.98 3.66 -2 4 C-1.34 2.68 -0.68 1.36 0 0 Z " fill="#086848" transform="translate(123,71)"/>
<path d="M0 0 C6.4 0.49230769 6.4 0.49230769 9.4375 3.0625 C10.2109375 4.0215625 10.2109375 4.0215625 11 5 C6.87248551 4.39301257 3.6678852 2.96189209 0 1 C0 0.67 0 0.34 0 0 Z " fill="#AEE0D0" transform="translate(212,0)"/>
<path d="M0 0 C2.64 0 5.28 0 8 0 C6.02 0.99 6.02 0.99 4 2 C4 2.99 4 3.98 4 5 C2.35 4.01 0.7 3.02 -1 2 C-0.67 1.34 -0.34 0.68 0 0 Z " fill="#043726" transform="translate(102,132)"/>
<path d="M0 0 C0.33 0.66 0.66 1.32 1 2 C1.66 2 2.32 2 3 2 C3 2.66 3 3.32 3 4 C1.68 4.33 0.36 4.66 -1 5 C-1 4.67 -1 4.34 -1 4 C-3.31 3.67 -5.62 3.34 -8 3 C-8 2.67 -8 2.34 -8 2 C-6.865625 1.855625 -5.73125 1.71125 -4.5625 1.5625 C-1.19222799 1.38828522 -1.19222799 1.38828522 0 0 Z " fill="#096F4D" transform="translate(175,84)"/>
<path d="M0 0 C0.99 0 1.98 0 3 0 C2.67 3.3 2.34 6.6 2 10 C1.67 10 1.34 10 1 10 C1 7.69 1 5.38 1 3 C0.34 3 -0.32 3 -1 3 C-0.67 2.01 -0.34 1.02 0 0 Z " fill="#0A7E57" transform="translate(62,72)"/>
<path d="M0 0 C0.66 0.33 1.32 0.66 2 1 C-1.465 3.97 -1.465 3.97 -5 7 C-3.92643531 2.70574125 -3.4915227 2.25259529 0 0 Z " fill="#CBE1D9" transform="translate(9,2)"/>
</svg>
